<svg width="180" height="180" viewBox="0 0 180 180" fill="none" xmlns="http://www.w3.org/2000/svg">
<path d="M88.2773 36.0166C88.708 36.4549 88.9233 36.8932 89.1386 37.3315C89.1386 37.1124 89.3539 36.6741 89.5692 36.0166H88.2773Z" fill="white"/>
<path d="M106.303 71.9523L101.62 76.1765L101.273 81.4959L95.8952 154.715C93.9871 154.246 91.9055 154.09 89.8239 154.09C87.7423 154.09 85.8342 154.246 83.926 154.715L78.5486 81.4959L78.2017 76.0201L73.5181 71.7959H106.303V71.9523Z" fill="#008585"/>
<path d="M114.545 180H65.4546C66.5311 177.151 67.823 174.522 69.7608 172.111C70.1914 171.453 70.8374 170.796 71.4833 170.139C73.4211 168.166 75.5742 166.413 77.9426 165.098C78.8039 164.66 79.6651 164.221 80.5264 164.002C81.3876 163.564 82.2488 163.345 83.1101 163.126C83.1101 163.126 83.1101 163.126 83.3254 163.126C85.4785 162.468 87.8469 162.249 90.2154 162.249C92.5838 162.249 94.9522 162.687 97.1053 163.126H97.3206C98.1819 163.345 99.0431 163.564 99.9043 164.002C100.766 164.441 101.627 164.66 102.488 165.098C104.857 166.413 107.01 168.166 108.947 170.139C109.593 170.796 110.024 171.453 110.67 172.111C112.177 174.522 113.469 177.151 114.545 180Z" fill="#008585"/>
<path d="M70.6216 53.5491L77.5116 158.304C68.0379 151.291 54.0427 144.059 36.1719 145.155V45.4404L70.6216 53.5491Z" fill="#008585"/>
<path d="M143.828 45.4404V145.155C125.957 144.059 111.961 151.291 102.703 158.523L109.593 53.7682L143.828 45.4404Z" fill="#008585"/>
<path d="M70.6216 53.5491L77.5116 158.304C68.0379 151.291 54.0427 144.059 36.1719 145.155V45.4404L70.6216 53.5491Z" fill="#008585"/>
<path d="M31.6506 152.387C31.6506 152.387 54.6889 153.702 67.6076 165.755C66.531 166.851 65.6698 167.946 64.8085 169.042C55.1195 163.783 38.1099 157.208 13.9951 158.523V51.1382L31.6506 57.9319V152.387Z" fill="#008585"/>
<path d="M0.215311 64.0684L8.82775 68.2323V164.44C8.82775 164.44 45 164.221 54.2584 180C54.2584 180 19.8086 167.07 0 170.796V64.0684H0.215311Z" fill="#008585"/>
<path d="M166.005 51.1382V158.523C141.89 157.427 124.88 163.783 115.191 169.042C114.33 167.946 113.469 166.851 112.392 165.755C125.095 153.702 148.349 152.387 148.349 152.387V57.9319L166.005 51.1382Z" fill="#008585"/>
<path d="M179.785 64.0684L171.172 68.2323V164.44C171.172 164.44 135 164.221 125.742 180C125.742 180 160.191 167.07 180 170.796V64.0684H179.785Z" fill="#008585"/>
<path d="M91.874 0C91.874 0 89.9362 8.10864 84.1228 13.8066C78.0941 19.5046 70.5582 27.1749 71.6348 35.941C72.7113 44.9263 76.5869 47.9944 77.4482 49.7476C77.6635 49.0902 78.0941 47.7753 78.7401 46.2412C80.4625 42.2964 82.831 39.8858 83.6922 39.0092C87.9984 34.4069 97.2568 24.5451 97.9027 16.8747C98.3334 13.8066 98.118 8.10864 91.874 0Z" fill="#C7522A"/>
<path d="M109.099 36.8175C107.807 45.1453 99.1944 54.3497 94.8882 58.9519C94.2423 59.8285 91.8738 62.2392 89.936 66.184C89.5054 67.0606 89.2901 67.718 89.0748 68.3755C88.8595 68.8138 88.8595 69.2521 88.6442 69.6904C88.4289 69.2521 87.9982 69.033 87.7829 68.3755C86.2757 66.4031 83.4767 62.8967 82.8308 55.6646C81.7542 46.6794 89.0748 39.8857 95.3188 33.5302C100.917 27.6131 103.07 19.7236 103.07 19.7236C109.314 27.8323 109.529 33.5302 109.099 36.8175Z" fill="#C7522A"/>
</svg>
